<?xml version="1.0" standalone="no"?>
<!DOCTYPE svg PUBLIC "-//W3C//DTD SVG 20010904//EN"
 "http://www.w3.org/TR/2001/REC-SVG-20010904/DTD/svg10.dtd">
<svg version="1.0" xmlns="http://www.w3.org/2000/svg"
 width="500.000000pt" height="500.000000pt" viewBox="0 0 500.000000 500.000000"
 preserveAspectRatio="xMidYMid meet">
<metadata>
Created by potrace 1.14, written by Peter Selinger 2001-2017
</metadata>
<g transform="translate(0.000000,500.000000) scale(0.100000,-0.100000)"
fill="#000000" stroke="none">
<path d="M3603 4899 c-155 -28 -237 -187 -167 -327 14 -29 40 -63 58 -77 31
-23 31 -25 31 -112 l0 -88 -1031 -3 -1030 -2 1 89 c0 88 0 89 35 124 55 57 78
111 75 178 -5 122 -104 219 -225 219 -136 0 -245 -123 -226 -257 7 -55 43
-120 83 -149 27 -20 28 -23 26 -105 -1 -46 -2 -89 -2 -95 -1 -6 -34 -16 -75
-22 -407 -63 -776 -413 -860 -816 -3 -11 -8 -32 -13 -46 -4 -14 -9 -583 -10
-1265 -2 -1307 -2 -1307 42 -1450 90 -289 308 -536 582 -661 l74 -34 1532 0
1532 0 98 50 c311 156 505 413 578 760 17 79 18 173 18 1300 0 1157 -1 1220
-19 1310 -63 315 -235 555 -519 727 -29 18 -58 33 -63 33 -5 0 -19 6 -31 14
-33 21 -164 63 -237 75 -118 20 -106 8 -105 112 0 87 2 92 28 111 75 55 107
188 65 275 -46 97 -144 150 -245 132z m170 -1133 c123 -30 235 -102 314 -201
39 -49 90 -151 98 -195 3 -18 9 -38 13 -44 4 -6 7 -542 8 -1191 0 -936 -2
-1194 -13 -1245 -19 -97 -73 -198 -146 -272 -69 -71 -130 -109 -227 -144 l-65
-23 -1237 0 c-879 -1 -1252 2 -1290 10 -202 43 -379 223 -421 429 -11 52 -13
294 -12 1240 1 646 5 1184 8 1195 21 81 30 106 55 154 56 108 169 212 277 257
99 41 112 41 1385 39 674 -1 1238 -5 1253 -9z"/>
<path d="M1444 3378 c-159 -53 -255 -194 -251 -366 2 -65 7 -88 35 -142 49
-99 110 -156 206 -193 64 -24 182 -26 246 -3 152 55 251 195 251 354 1 254
-245 431 -487 350z"/>
<path d="M3329 3381 c-319 -101 -353 -537 -53 -689 156 -79 358 -28 465 118
49 67 67 129 65 226 -1 77 -5 97 -31 149 -82 165 -275 250 -446 196z"/>
<path d="M1379 1663 c-9 -10 -38 -37 -65 -59 -27 -23 -76 -66 -109 -96 l-59
-55 96 -95 c201 -200 454 -355 710 -437 277 -89 596 -111 859 -61 30 6 69 13
88 16 117 19 384 126 524 210 134 81 357 266 415 345 11 14 -5 32 -107 123
-66 58 -122 106 -126 106 -3 0 -42 -36 -86 -79 -200 -199 -478 -342 -754 -390
-33 -6 -76 -13 -95 -16 -58 -10 -281 -7 -360 4 -221 33 -443 118 -614 234 -93
63 -184 141 -256 219 -43 47 -46 48 -61 31z"/>
</g>
</svg>
